<?xml version="1.0" encoding="UTF-8" standalone="no"?>
<!-- Created with Inkscape (http://www.inkscape.org/) -->

<svg
   xmlns:osb="http://www.openswatchbook.org/uri/2009/osb"
   xmlns:dc="http://purl.org/dc/elements/1.1/"
   xmlns:cc="http://creativecommons.org/ns#"
   xmlns:rdf="http://www.w3.org/1999/02/22-rdf-syntax-ns#"
   xmlns:svg="http://www.w3.org/2000/svg"
   xmlns="http://www.w3.org/2000/svg"
   xmlns:xlink="http://www.w3.org/1999/xlink"
   xmlns:sodipodi="http://sodipodi.sourceforge.net/DTD/sodipodi-0.dtd"
   xmlns:inkscape="http://www.inkscape.org/namespaces/inkscape"
   inkscape:export-ydpi="96"
   inkscape:export-xdpi="96"
   inkscape:export-filename="/Users/eliaskassellraymond/Desktop/simon_logo_v1_expanded.png"
   inkscape:version="0.92.4 (5da689c313, 2019-01-14)"
   sodipodi:docname="reported.svg"
   viewBox="0 0 400 400"
   height="400"
   width="400"
   id="svg3842"
   version="1.1">
  <sodipodi:namedview
     inkscape:snap-nodes="true"
     inkscape:snap-others="true"
     inkscape:snap-page="false"
     inkscape:snap-bbox="true"
     inkscape:measure-end="900,220"
     inkscape:measure-start="980,320"
     inkscape:snap-global="true"
     inkscape:snap-grids="true"
     inkscape:current-layer="layer2"
     inkscape:window-maximized="1"
     inkscape:window-y="-13"
     inkscape:window-x="-13"
     inkscape:cy="227.5234"
     inkscape:cx="250.88115"
     inkscape:zoom="4"
     showgrid="true"
     id="namedview3844"
     inkscape:window-height="1515"
     inkscape:window-width="2880"
     inkscape:pageshadow="2"
     inkscape:pageopacity="0"
     guidetolerance="10"
     gridtolerance="10"
     objecttolerance="10"
     borderopacity="1"
     bordercolor="#666666"
     pagecolor="#ffffff"
     inkscape:snap-intersection-paths="true"
     inkscape:object-paths="true">
    <inkscape:grid
       id="grid3861"
       type="xygrid" />
  </sodipodi:namedview>
  <metadata
     id="metadata3848">
    <rdf:RDF>
      <cc:Work
         rdf:about="">
        <dc:format>image/svg+xml</dc:format>
        <dc:type
           rdf:resource="http://purl.org/dc/dcmitype/StillImage" />
        <dc:title />
      </cc:Work>
    </rdf:RDF>
  </metadata>
  <defs
     id="defs3846">
    <linearGradient
       id="linearGradient956"
       osb:paint="solid">
      <stop
         style="stop-color:#000000;stop-opacity:1;"
         offset="0"
         id="stop954" />
    </linearGradient>
    <linearGradient
       id="linearGradient922"
       osb:paint="solid">
      <stop
         style="stop-color:#000000;stop-opacity:1;"
         offset="0"
         id="stop920" />
    </linearGradient>
    <linearGradient
       id="linearGradient1023"
       osb:paint="solid">
      <stop
         style="stop-color:#000000;stop-opacity:1;"
         offset="0"
         id="stop1021" />
    </linearGradient>
    <linearGradient
       id="linearGradient1017"
       osb:paint="solid">
      <stop
         style="stop-color:#000000;stop-opacity:1;"
         offset="0"
         id="stop1015" />
    </linearGradient>
    <linearGradient
       id="linearGradient1005"
       osb:paint="solid">
      <stop
         style="stop-color:#000000;stop-opacity:1;"
         offset="0"
         id="stop1003" />
    </linearGradient>
    <linearGradient
       id="linearGradient962"
       osb:paint="solid">
      <stop
         style="stop-color:#000000;stop-opacity:1;"
         offset="0"
         id="stop960" />
    </linearGradient>
    <linearGradient
       id="linearGradient946"
       osb:paint="solid">
      <stop
         style="stop-color:#000000;stop-opacity:1;"
         offset="0"
         id="stop944" />
    </linearGradient>
    <linearGradient
       id="linearGradient937"
       osb:paint="solid">
      <stop
         style="stop-color:#000000;stop-opacity:1;"
         offset="0"
         id="stop935" />
    </linearGradient>
    <linearGradient
       id="linearGradient929"
       osb:paint="solid">
      <stop
         style="stop-color:#000000;stop-opacity:1;"
         offset="0"
         id="stop927" />
    </linearGradient>
    <linearGradient
       id="linearGradient917"
       osb:paint="solid">
      <stop
         style="stop-color:#000000;stop-opacity:1;"
         offset="0"
         id="stop915" />
    </linearGradient>
    <linearGradient
       id="linearGradient907"
       osb:paint="solid">
      <stop
         style="stop-color:#000000;stop-opacity:1;"
         offset="0"
         id="stop905" />
    </linearGradient>
    <linearGradient
       id="linearGradient914"
       osb:paint="solid">
      <stop
         style="stop-color:#000000;stop-opacity:1;"
         offset="0"
         id="stop912" />
    </linearGradient>
    <linearGradient
       id="linearGradient925"
       osb:paint="solid">
      <stop
         style="stop-color:#092642;stop-opacity:1;"
         offset="0"
         id="stop923" />
    </linearGradient>
    <linearGradient
       id="linearGradient916"
       osb:paint="solid">
      <stop
         style="stop-color:#092642;stop-opacity:1;"
         offset="0"
         id="stop914" />
    </linearGradient>
    <marker
       inkscape:stockid="Arrow1Lstart"
       orient="auto"
       refY="0"
       refX="0"
       id="Arrow1Lstart"
       style="overflow:visible"
       inkscape:isstock="true">
      <path
         id="path970"
         d="M 0,0 5,-5 -12.5,0 5,5 Z"
         style="fill:#586f7c;fill-opacity:1;fill-rule:evenodd;stroke:#2f4550;stroke-width:1.00000003pt;stroke-opacity:1"
         transform="matrix(0.8,0,0,0.8,10,0)"
         inkscape:connector-curvature="0" />
    </marker>
    <linearGradient
       id="black-7"
       osb:paint="solid">
      <stop
         style="stop-color:#000000;stop-opacity:1;"
         offset="0"
         id="stop964" />
    </linearGradient>
    <linearGradient
       id="linearGradient944"
       osb:paint="solid">
      <stop
         style="stop-color:#e6e6e6;stop-opacity:1;"
         offset="0"
         id="stop942" />
    </linearGradient>
    <linearGradient
       id="linearGradient920"
       osb:paint="solid">
      <stop
         style="stop-color:#e6e6e6;stop-opacity:1;"
         offset="0"
         id="stop917" />
    </linearGradient>
    <linearGradient
       id="linearGradient2388"
       osb:paint="gradient">
      <stop
         id="stop2384"
         offset="0"
         style="stop-color:#2f4550;stop-opacity:1" />
      <stop
         id="stop2386"
         offset="1"
         style="stop-color:#b8dbd9;stop-opacity:1" />
    </linearGradient>
    <linearGradient
       id="linearGradient2341"
       osb:paint="solid">
      <stop
         style="stop-color:#f2f3ae;stop-opacity:1;"
         offset="0"
         id="stop2339" />
    </linearGradient>
    <linearGradient
       id="primary-mid"
       osb:paint="solid">
      <stop
         style="stop-color:#586f7c;stop-opacity:1;"
         offset="0"
         id="stop2333" />
    </linearGradient>
    <linearGradient
       id="linearGradient2329"
       osb:paint="solid">
      <stop
         style="stop-color:#000000;stop-opacity:1;"
         offset="0"
         id="stop2327" />
    </linearGradient>
    <linearGradient
       id="background"
       osb:paint="solid">
      <stop
         style="stop-color:#f4f4f9;stop-opacity:0;"
         offset="0"
         id="stop6368" />
    </linearGradient>
    <linearGradient
       id="mid_orange"
       osb:paint="solid">
      <stop
         style="stop-color:#e6a065;stop-opacity:1;"
         offset="0"
         id="stop6338" />
    </linearGradient>
    <linearGradient
       id="light_orange"
       osb:paint="solid">
      <stop
         style="stop-color:#f2f32f;stop-opacity:1;"
         offset="0"
         id="stop4898" />
    </linearGradient>
    <linearGradient
       id="linearGradient1056"
       osb:paint="solid">
      <stop
         style="stop-color:#ff6600;stop-opacity:1;"
         offset="0"
         id="stop1054" />
    </linearGradient>
    <linearGradient
       id="linearGradient1016"
       osb:paint="solid">
      <stop
         style="stop-color:#ff6600;stop-opacity:1;"
         offset="0"
         id="stop1014" />
    </linearGradient>
    <linearGradient
       id="linearGradient1010"
       osb:paint="solid">
      <stop
         style="stop-color:#000000;stop-opacity:1;"
         offset="0"
         id="stop1008" />
    </linearGradient>
    <linearGradient
       id="linearGradient987"
       osb:paint="solid">
      <stop
         style="stop-color:#ff521b;stop-opacity:1;"
         offset="0"
         id="stop985" />
    </linearGradient>
    <linearGradient
       id="linearGradient981"
       osb:paint="solid">
      <stop
         style="stop-color:#ff521b;stop-opacity:1;"
         offset="0"
         id="stop979" />
    </linearGradient>
    <linearGradient
       id="opaque"
       osb:paint="solid">
      <stop
         style="stop-color:#000000;stop-opacity:0;"
         offset="0"
         id="stop969" />
    </linearGradient>
    <linearGradient
       id="linearGradient963"
       osb:paint="solid">
      <stop
         style="stop-color:#000000;stop-opacity:1;"
         offset="0"
         id="stop961" />
    </linearGradient>
    <linearGradient
       id="linearGradient957"
       osb:paint="solid">
      <stop
         style="stop-color:#ff521b;stop-opacity:1;"
         offset="0"
         id="stop955" />
    </linearGradient>
    <linearGradient
       id="linearGradient949"
       osb:paint="solid">
      <stop
         style="stop-color:#ff521b;stop-opacity:1;"
         offset="0"
         id="stop947" />
    </linearGradient>
    <linearGradient
       id="linearGradient943"
       osb:paint="solid">
      <stop
         style="stop-color:#ff521b;stop-opacity:1;"
         offset="0"
         id="stop941" />
    </linearGradient>
    <linearGradient
       id="primary"
       osb:paint="solid">
      <stop
         style="stop-color:#586f7c;stop-opacity:1;"
         offset="0"
         id="stop931" />
    </linearGradient>
    <linearGradient
       id="background-7"
       osb:paint="solid">
      <stop
         style="stop-color:#f4f4f9;stop-opacity:1;"
         offset="0"
         id="stop921" />
    </linearGradient>
    <linearGradient
       id="light"
       osb:paint="solid">
      <stop
         style="stop-color:#b8dbd9;stop-opacity:1;"
         offset="0"
         id="stop913" />
    </linearGradient>
    <linearGradient
       inkscape:collect="always"
       id="linearGradient104">
      <stop
         style="stop-color:#054a91;stop-opacity:1"
         offset="0"
         id="stop100" />
      <stop
         style="stop-color:#ff521b;stop-opacity:1"
         offset="1"
         id="stop102" />
    </linearGradient>
    <linearGradient
       id="black"
       osb:paint="solid">
      <stop
         style="stop-color:#000000;stop-opacity:1;"
         offset="0"
         id="stop4911" />
    </linearGradient>
    <linearGradient
       id="dark"
       osb:paint="solid">
      <stop
         style="stop-color:#2f4550;stop-opacity:1;"
         offset="0"
         id="stop4905" />
    </linearGradient>
    <linearGradient
       inkscape:collect="always"
       xlink:href="#linearGradient104"
       id="linearGradient106"
       x1="200"
       y1="560"
       x2="340"
       y2="560"
       gradientUnits="userSpaceOnUse" />
    <linearGradient
       inkscape:collect="always"
       xlink:href="#dark"
       id="linearGradient919"
       gradientUnits="userSpaceOnUse"
       x1="40"
       y1="560"
       x2="340"
       y2="560" />
    <linearGradient
       inkscape:collect="always"
       xlink:href="#light"
       id="linearGradient1043"
       gradientUnits="userSpaceOnUse"
       gradientTransform="matrix(0,-0.81249997,0.81249998,0,-68.512719,613.18675)"
       x1="339.68649"
       y1="500"
       x2="460.44336"
       y2="500" />
    <linearGradient
       inkscape:collect="always"
       xlink:href="#light"
       id="linearGradient1045"
       gradientUnits="userSpaceOnUse"
       gradientTransform="matrix(0,-0.81249997,0.81249998,0,-68.512719,613.18675)"
       x1="340"
       y1="500"
       x2="460"
       y2="500" />
    <linearGradient
       inkscape:collect="always"
       xlink:href="#light"
       id="linearGradient924"
       gradientUnits="userSpaceOnUse"
       gradientTransform="matrix(0,-0.90312885,0.95336467,0,-148.32388,583.09126)"
       x1="339.68649"
       y1="500"
       x2="460.44336"
       y2="500" />
    <linearGradient
       inkscape:collect="always"
       xlink:href="#light"
       id="linearGradient926"
       gradientUnits="userSpaceOnUse"
       gradientTransform="matrix(0,-0.90312885,0.95336467,0,-148.32388,583.09126)"
       x1="340"
       y1="500"
       x2="460"
       y2="500" />
    <linearGradient
       inkscape:collect="always"
       xlink:href="#light"
       id="linearGradient1007"
       x1="200"
       y1="430"
       x2="300"
       y2="430"
       gradientUnits="userSpaceOnUse"
       gradientTransform="matrix(0.2446153,0,0,0.35869708,139.84228,287.756)" />
    <linearGradient
       inkscape:collect="always"
       xlink:href="#light"
       id="linearGradient1011"
       gradientUnits="userSpaceOnUse"
       gradientTransform="matrix(0.28369864,0,0,0.1080391,129.51182,472.50431)"
       x1="200"
       y1="430"
       x2="300"
       y2="430" />
    <linearGradient
       inkscape:collect="always"
       xlink:href="#light"
       id="linearGradient958"
       x1="-696.12286"
       y1="339.16547"
       x2="-244.10197"
       y2="339.16547"
       gradientUnits="userSpaceOnUse" />
  </defs>
  <g
     inkscape:groupmode="layer"
     id="layer7"
     inkscape:label="Shadow"
     transform="translate(0,-260)" />
  <g
     inkscape:groupmode="layer"
     id="layer8"
     inkscape:label="HouseFill"
     transform="translate(0,-260)" />
  <g
     inkscape:groupmode="layer"
     id="layer2"
     inkscape:label="S"
     transform="translate(0,-260)">
    <path
       transform="matrix(-0.25279009,-0.05927686,0.05927686,-0.25279009,71.11159,526.90238)"
       inkscape:transform-center-y="-12.046912"
       inkscape:transform-center-x="14.279464"
       d="M -380.00001,560 -537.58331,390.98076 -695.1666,221.96152 -469.99999,170 l 225.1666,-51.96152 -67.58331,220.98077 z"
       inkscape:randomized="0"
       inkscape:rounded="0"
       inkscape:flatsided="false"
       sodipodi:arg2="2.3911951"
       sodipodi:arg1="1.3439975"
       sodipodi:r2="133.41664"
       sodipodi:r1="266.83328"
       sodipodi:cy="300"
       sodipodi:cx="-440"
       sodipodi:sides="3"
       id="path960"
       style="opacity:1;fill:none;fill-opacity:1;stroke:#586f7c;stroke-width:962.84564209;stroke-linejoin:round;stroke-miterlimit:4.5;stroke-dasharray:none;stroke-opacity:1;paint-order:normal"
       sodipodi:type="star" />
    <path
       style="fill:none;stroke:#b8dbd9;stroke-width:3.00094488;stroke-linecap:butt;stroke-linejoin:miter;stroke-opacity:1;stroke-miterlimit:4;stroke-dasharray:none"
       d="m 130,304.57013 -1,0.70886 -1.31934,0.91141 -1.86804,1.34451 -1.52761,1.15764 -2.912,2.30745 -1.1191,0.91797 -2.07032,1.76562 -1.49218,1.31641 -4.19141,4 -2.98684,3 -1.82566,2 -0.92188,1 -0.84375,1 -1.70312,2 -0.82031,1 -0.82813,1 -0.78125,1 -0.78906,1 -0.72656,1 -0.781253,1 -1.40625,2 -1.390625,2 -1.296875,2 -3.023437,5 -2.9375,5 -2.9375,5 -2.9375,5 -2.875,5 -3,5 -2.6875,5 -3,5 -3,5 -2.3125,4 -2.3125,4 -4,7 -2.9375,5 -2.9375,5 -2.9375,5 -2.9375,5 -2.25,4 -2.9375,5 -3.4375,6 -3,5 -3,5 -2.625,5 -2.8125,5 -2.5625,5 -2,5 -1.5,4 -2,6 -1.5,5 -1,5 -1,5 -1,5 -0.5,5 -0.5,5 v 5 5 l 0.375,5 0.3125,5 0.6875,5 1,5 1,5 1.1875,5 1.4375,5 1.4375,4 1.9375,5 2.1875,5 2.9375,6 2.875,5 3.0625,5 3.5625,5 3.6875,5 4.3125,5 4.5625,5 5.4375,5 3,2.625 5,4 5,3.375 5,3.375 5,2.625 5,3 5,2 5,2.3125 5,1.6875 5,1.5 5,1.5 5,1 5,1 5,0.625 5,0.375 5,0.5625 h 5 5 10 l 10,0.0625 h 5 5 10 10 L 205,637 h 55 l 10,-0.4375 5,-0.5625 5,-0.6875 5,-0.9375 5,-1.0625 5,-1.3125 5,-1.5625 5,-1.9375 5,-2.0625 4,-1.875 6,-3 5,-2.9375 5,-3.0625 5,-3.5625 5,-4 5,-4.375 3.6875,-3.625 4.75,-5 4.25,-5 3.8125,-5 3.5,-5 3,-5 2.625,-5 2.75,-5 2.0625,-5 1.9375,-5 1.625,-5 1.5625,-5 1,-4 1.0625,-5 0.875,-5 0.875,-6 0.3125,-5 0.3125,-5 v -5 l -0.3125,-5 -0.3125,-5 -0.375,-5 -1,-5 -1,-5 -1,-5 -1.625,-5 L 378,470 376,465.45725 373.68384,460 371.27525,455 368.55731,450 365,443.8021 360,435 l -2.87793,-5 -2.91682,-5 -2.82842,-5 -2.83948,-5 -2.89472,-5 -2.89472,-5 L 337,395 332,386.28338 328.46215,380 l -2.8684,-5 -2.88789,-5 -2.86158,-5 -2.84428,-5 -3,-5 -2.71834,-5 -2.90666,-5 -3.0485,-5 L 302,335 298.15599,330 294,325 289.25087,320 284,315 278.13603,310 275,307.57356 270,304 265,300.87814 260,298 l -5,-2.57984 -5,-2.276 -5,-2.01083 -5,-1.78987 -5,-1.5247 -5,-1.34792 -5,-1.17114 -5,-0.86179 -5,-0.70711 -5,-0.48613 L 205,283 200,282.84692 195,283 l -5,0.28886 -5,0.50824 -5,0.7292 -5,0.95017 -5,1.14905 -5,1.37448 -5,1.58653 -5,1.81196 -5,2.07713 -5,2.34229 -5,2.58536 -5,2.89472 z"
       id="path5441"
       inkscape:connector-curvature="0" />
  </g>
  <g
     inkscape:groupmode="layer"
     id="layer6"
     inkscape:label="CentralBox"
     transform="translate(0,-260)"
     style="opacity:1">
    <ellipse
       style="opacity:1;fill:url(#linearGradient1007);fill-opacity:1;stroke-width:0.29621407"
       id="path929"
       cx="200.99609"
       cy="441.99576"
       rx="12.230764"
       ry="46.630627" />
    <ellipse
       ry="14.045085"
       rx="14.184933"
       cy="518.96112"
       cx="200.43648"
       id="ellipse1009"
       style="opacity:1;fill:url(#linearGradient1011);fill-opacity:1;stroke-width:0.17507298" />
    <path
       sodipodi:type="star"
       style="opacity:1;fill:none;fill-opacity:1;stroke:url(#linearGradient958);stroke-width:29.71066632;stroke-linejoin:round;stroke-miterlimit:4;stroke-dasharray:none;stroke-opacity:1"
       id="path918"
       sodipodi:sides="3"
       sodipodi:cx="-440"
       sodipodi:cy="300"
       sodipodi:r1="266.83328"
       sodipodi:r2="133.41664"
       sodipodi:arg1="1.3439975"
       sodipodi:arg2="2.3911951"
       inkscape:flatsided="false"
       inkscape:rounded="0"
       inkscape:randomized="0"
       d="M -380.00001,560 -537.58331,390.98076 -695.1666,221.96152 -469.99999,170 l 225.1666,-51.96152 -67.58331,220.98077 z"
       inkscape:transform-center-x="33.318749"
       inkscape:transform-center-y="-28.109469"
       transform="matrix(-0.58984352,-0.13831267,0.13831267,-0.58984352,-100.73961,594.3219)" />
  </g>
  <g
     inkscape:groupmode="layer"
     id="layer3"
     inkscape:label="BottomFlap" />
  <g
     inkscape:groupmode="layer"
     id="layer10"
     inkscape:label="Shadows"
     transform="translate(0,-260)"
     style="opacity:0.93999999" />
  <g
     inkscape:groupmode="layer"
     id="layer9"
     inkscape:label="TopFlap"
     transform="translate(0,-260)" />
</svg>
